<svg width="305" height="44" viewBox="0 0 305 44" fill="none" xmlns="http://www.w3.org/2000/svg">
<path d="M194.828 34L193.516 28.2344H187.562L186.25 34H182L187.656 11.0625H193.422L199.094 34H194.828ZM192.719 24.4688L191.5 19.1562C191.427 18.8333 191.26 18.026 191 16.7344C190.75 15.4323 190.599 14.5625 190.547 14.125C190.411 15.0208 190.24 16.0104 190.031 17.0938C189.823 18.1667 189.281 20.625 188.406 24.4688H192.719ZM205.359 25.1094V34H201.109V11.1562H206.672C209.026 11.1562 210.76 11.7135 211.875 12.8281C213 13.9427 213.562 15.6458 213.562 17.9375C213.562 20.8229 212.589 22.8385 210.641 23.9844L215.031 34H210.484L206.875 25.1094H205.359ZM205.359 21.4531H206.453C207.453 21.4531 208.172 21.1719 208.609 20.6094C209.047 20.0365 209.266 19.1875 209.266 18.0625C209.266 16.8958 209.031 16.0677 208.562 15.5781C208.104 15.0781 207.391 14.8281 206.422 14.8281H205.359V21.4531ZM224.688 14.5469C223.469 14.5469 222.505 15.2604 221.797 16.6875C221.099 18.1146 220.75 20.099 220.75 22.6406C220.75 27.9323 222.13 30.5781 224.891 30.5781C226.099 30.5781 227.365 30.1927 228.688 29.4219V33.2031C227.573 33.9427 226.146 34.3125 224.406 34.3125C221.833 34.3125 219.854 33.2917 218.469 31.25C217.094 29.1979 216.406 26.3177 216.406 22.6094C216.406 18.901 217.115 16.0104 218.531 13.9375C219.958 11.8646 221.938 10.8281 224.469 10.8281C225.302 10.8281 226.099 10.9427 226.859 11.1719C227.63 11.401 228.453 11.8021 229.328 12.375L227.922 15.8281C227.453 15.5052 226.953 15.2135 226.422 14.9531C225.891 14.6823 225.312 14.5469 224.688 14.5469ZM246.031 34H241.781V23.9844H236.172V34H231.922V11.1562H236.172V20.2344H241.781V11.1562H246.031V34ZM250.844 34V11.1562H254.844V34H250.844ZM266.688 34H262.453V14.8906H258.078V11.1562H271.062V14.8906H266.688V34ZM283.234 34L281.922 28.2344H275.969L274.656 34H270.406L276.062 11.0625H281.828L287.5 34H283.234ZM281.125 24.4688L279.906 19.1562C279.833 18.8333 279.667 18.026 279.406 16.7344C279.156 15.4323 279.005 14.5625 278.953 14.125C278.818 15.0208 278.646 16.0104 278.438 17.0938C278.229 18.1667 277.688 20.625 276.812 24.4688H281.125ZM300.328 34L299.016 28.2344H293.062L291.75 34H287.5L293.156 11.0625H298.922L304.594 34H300.328ZM298.219 24.4688L297 19.1562C296.927 18.8333 296.76 18.026 296.5 16.7344C296.25 15.4323 296.099 14.5625 296.047 14.125C295.911 15.0208 295.74 16.0104 295.531 17.0938C295.323 18.1667 294.781 20.625 293.906 24.4688H298.219Z" fill="white"/>
<line x1="4.37114e-08" y1="21.5" x2="213" y2="21.5" stroke="#FFC94B"/>
</svg>
